<svg width="25" height="25" viewBox="0 0 25 25" fill="none" xmlns="http://www.w3.org/2000/svg">
<path d="M13.528 2.8794C14.2578 2.8766 14.9875 2.88394 15.717 2.9014L15.911 2.9084C16.135 2.9164 16.356 2.9264 16.623 2.9384C17.687 2.9884 18.413 3.1564 19.05 3.4034C19.71 3.6574 20.266 4.0014 20.822 4.5574C21.3304 5.05701 21.7239 5.66135 21.975 6.3284C22.222 6.9654 22.39 7.6924 22.44 8.7564C22.452 9.0224 22.462 9.2444 22.47 9.4684L22.476 9.6624C22.4938 10.3916 22.5015 11.121 22.499 11.8504L22.5 12.5964V13.9064C22.5025 14.6361 22.4948 15.3659 22.477 16.0954L22.471 16.2894C22.463 16.5134 22.453 16.7344 22.441 17.0014C22.391 18.0654 22.221 18.7914 21.975 19.4284C21.7247 20.0962 21.3311 20.701 20.822 21.2004C20.322 21.7087 19.7173 22.1022 19.05 22.3534C18.413 22.6004 17.687 22.7684 16.623 22.8184C16.356 22.8304 16.135 22.8404 15.911 22.8484L15.717 22.8544C14.9875 22.8722 14.2578 22.8798 13.528 22.8774L12.782 22.8784H11.473C10.7433 22.8809 10.0136 22.8732 9.28403 22.8554L9.09003 22.8494C8.85264 22.8408 8.6153 22.8308 8.37803 22.8194C7.31403 22.7694 6.58803 22.5994 5.95003 22.3534C5.28271 22.1027 4.67827 21.7092 4.17903 21.2004C3.67007 20.7007 3.27625 20.096 3.02503 19.4284C2.77803 18.7914 2.61003 18.0654 2.56003 17.0014C2.54889 16.7641 2.53889 16.5268 2.53003 16.2894L2.52503 16.0954C2.50659 15.3659 2.49826 14.6362 2.50003 13.9064V11.8504C2.49724 11.121 2.50457 10.3916 2.52203 9.6624L2.52903 9.4684C2.53703 9.2444 2.54703 9.0224 2.55903 8.7564C2.60903 7.6914 2.77703 6.9664 3.02403 6.3284C3.2754 5.66102 3.66999 5.05685 4.18003 4.5584C4.67892 4.04916 5.28299 3.65498 5.95003 3.4034C6.58803 3.1564 7.31303 2.9884 8.37803 2.9384L9.09003 2.9084L9.28403 2.9034C10.0132 2.88498 10.7426 2.87664 11.472 2.8784L13.528 2.8794ZM12.5 7.8794C11.8375 7.87003 11.1798 7.99243 10.565 8.23947C9.95022 8.48652 9.39067 8.85328 8.91887 9.31846C8.44707 9.78364 8.07243 10.3379 7.81671 10.9492C7.561 11.5604 7.42932 12.2163 7.42932 12.8789C7.42932 13.5415 7.561 14.1974 7.81671 14.8086C8.07243 15.4199 8.44707 15.9742 8.91887 16.4394C9.39067 16.9045 9.95022 17.2713 10.565 17.5183C11.1798 17.7654 11.8375 17.8878 12.5 17.8784C13.8261 17.8784 15.0979 17.3516 16.0356 16.4139C16.9732 15.4763 17.5 14.2045 17.5 12.8784C17.5 11.5523 16.9732 10.2806 16.0356 9.34287C15.0979 8.40519 13.8261 7.8794 12.5 7.8794ZM12.5 9.8794C12.8985 9.87206 13.2945 9.9442 13.6648 10.0916C14.0351 10.239 14.3724 10.4587 14.6568 10.7379C14.9412 11.0172 15.1672 11.3502 15.3215 11.7177C15.4757 12.0853 15.5552 12.4798 15.5553 12.8784C15.5554 13.277 15.476 13.6716 15.3219 14.0391C15.1677 14.4067 14.9419 14.7398 14.6575 15.0191C14.3732 15.2984 14.036 15.5183 13.6658 15.6658C13.2955 15.8133 12.8995 15.8856 12.501 15.8784C11.7054 15.8784 10.9423 15.5623 10.3797 14.9997C9.8171 14.4371 9.50103 13.6741 9.50103 12.8784C9.50103 12.0828 9.8171 11.3197 10.3797 10.7571C10.9423 10.1945 11.7054 9.8784 12.501 9.8784L12.5 9.8794ZM17.75 6.3794C17.4274 6.39232 17.1223 6.52955 16.8986 6.76238C16.6749 6.9952 16.55 7.30554 16.55 7.6284C16.55 7.95127 16.6749 8.26161 16.8986 8.49443C17.1223 8.72725 17.4274 8.86449 17.75 8.8774C18.0815 8.8774 18.3995 8.74571 18.6339 8.51129C18.8683 8.27687 19 7.95892 19 7.6274C19 7.29588 18.8683 6.97794 18.6339 6.74352C18.3995 6.5091 18.0815 6.3774 17.75 6.3774V6.3794Z" fill="#EDEDED"/>
</svg>
