<svg width="21" height="22" viewBox="0 0 21 22" fill="none" xmlns="http://www.w3.org/2000/svg">
<g clip-path="url(#clip0_0_72)">
<path fill-rule="evenodd" clip-rule="evenodd" d="M14.4826 20.1821C13.2226 20.1357 9.65176 19.6422 5.91201 15.9033C2.17313 12.1636 1.68051 8.59359 1.63326 7.33271C1.56326 5.41121 3.03501 3.54483 4.73513 2.81596C4.93986 2.72756 5.16406 2.6939 5.38572 2.71829C5.60739 2.74268 5.8189 2.82428 5.99951 2.95508C7.39951 3.97533 8.36551 5.51884 9.19501 6.73246C9.37752 6.9991 9.45556 7.32356 9.41425 7.64403C9.37294 7.9645 9.21517 8.25857 8.97101 8.47021L7.26388 9.73808C7.18141 9.79764 7.12335 9.88511 7.1005 9.98424C7.07765 10.0834 7.09155 10.1874 7.13963 10.2771C7.52638 10.9797 8.21413 12.0262 9.00163 12.8137C9.79001 13.6012 10.8855 14.3345 11.6371 14.765C11.7314 14.8179 11.8423 14.8327 11.9471 14.8063C12.0519 14.7799 12.1426 14.7144 12.2006 14.6232L13.3119 12.9318C13.5162 12.6605 13.8176 12.4786 14.1529 12.4245C14.4883 12.3703 14.8315 12.448 15.1109 12.6413C16.342 13.4936 17.7788 14.443 18.8305 15.7896C18.9719 15.9715 19.0619 16.1881 19.091 16.4166C19.1201 16.6452 19.0872 16.8774 18.9959 17.089C18.2635 18.7978 16.4103 20.253 14.4826 20.1821Z" fill="#EDEDED"/>
</g>
<defs>
<clipPath id="clip0_0_72">
<rect width="21" height="21" fill="white" transform="translate(0 0.815918)"/>
</clipPath>
</defs>
</svg>
