<svg width="27" height="21" viewBox="0 0 27 21" fill="none" xmlns="http://www.w3.org/2000/svg">
<path d="M9.31049 19.5526C17.1527 19.5526 21.4426 13.0547 21.4426 7.42954C21.4426 7.24771 21.4426 7.06328 21.4348 6.88145C22.27 6.27684 22.9908 5.52829 23.5635 4.67089C22.7834 5.01488 21.9566 5.24159 21.1101 5.34367C22.0018 4.81069 22.6696 3.97209 22.9895 2.98375C22.1517 3.48005 21.2348 3.82845 20.2789 4.01369C19.6362 3.32926 18.7858 2.87584 17.8593 2.72367C16.9329 2.5715 15.9821 2.72908 15.1542 3.17199C14.3264 3.6149 13.6677 4.31843 13.2802 5.1736C12.8927 6.02877 12.798 6.98786 13.0108 7.90231C11.3155 7.8173 9.65703 7.3769 8.14292 6.60966C6.62882 5.84243 5.29289 4.7655 4.22179 3.44872C3.67803 4.38786 3.51209 5.49874 3.75766 6.55579C4.00322 7.61284 4.64189 8.53681 5.54397 9.14006C4.86799 9.1171 4.20688 8.93558 3.61395 8.61015V8.6686C3.61511 9.65242 3.95593 10.6057 4.57879 11.3672C5.20165 12.1287 6.06835 12.6519 7.03239 12.8481C6.66647 12.9489 6.28848 12.9992 5.90893 12.9975C5.64136 12.9983 5.37432 12.9735 5.11147 12.9235C5.38394 13.7704 5.91448 14.5108 6.62879 15.0411C7.34309 15.5715 8.20539 15.8651 9.09489 15.8808C7.58381 17.0677 5.71723 17.7114 3.79578 17.7083C3.45721 17.7097 3.11887 17.6902 2.78271 17.6498C4.73288 18.8931 6.99771 19.5533 9.31049 19.5526Z" fill="#EDEDED"/>
</svg>
